<svg width="603" height="306" viewBox="0 0 603 306" fill="none" xmlns="http://www.w3.org/2000/svg">
<path d="M129.13 198.75C121.781 198.75 115.438 201.267 111.21 205.898V199.555H96.2088V253.72H111.914V226.94C111.914 216.973 117.351 212.342 124.902 212.342C131.849 212.342 135.876 216.369 135.876 225.128V253.72H151.581V222.711C151.581 206.2 141.916 198.75 129.13 198.75Z" fill="white"/>
<path d="M187.665 198.75C179.007 198.75 170.248 201.066 164.308 205.294L169.946 216.268C173.872 213.147 179.812 211.234 185.551 211.234C194.008 211.234 198.035 215.161 198.035 221.906H185.551C169.04 221.906 162.294 228.551 162.294 238.115C162.294 247.478 169.845 254.525 182.53 254.525C190.484 254.525 196.122 251.908 199.041 246.975V253.72H213.74V222.812C213.74 206.402 204.176 198.75 187.665 198.75ZM186.457 243.954C180.919 243.954 177.597 241.337 177.597 237.41C177.597 233.786 179.913 231.068 187.262 231.068H198.035V236.605C196.222 241.538 191.692 243.954 186.457 243.954Z" fill="white"/>
<path d="M220.706 262.781H271.045V253.72H220.706V262.781Z" fill="white"/>
<path d="M307.034 240.028C305.322 241.337 303.007 242.041 300.691 242.041C296.463 242.041 293.946 239.524 293.946 234.893V212.845H307.437V200.764H293.946V187.575H278.24V200.764H269.884V212.845H278.24V235.095C278.24 247.981 285.69 254.525 298.476 254.525C303.309 254.525 308.041 253.418 311.262 251.102L307.034 240.028Z" fill="white"/>
<path d="M371.464 226.839C371.464 209.422 359.182 198.75 343.275 198.75C326.763 198.75 314.38 210.429 314.38 226.638C314.38 242.746 326.562 254.525 345.288 254.525C355.054 254.525 362.605 251.505 367.639 245.766L359.282 236.705C355.557 240.229 351.43 241.941 345.691 241.941C337.435 241.941 331.697 237.813 330.187 231.068H371.162C371.263 229.759 371.464 228.047 371.464 226.839ZM343.375 210.63C350.423 210.63 355.557 215.06 356.665 221.906H329.985C331.093 214.959 336.227 210.63 343.375 210.63Z" fill="white"/>
<path d="M408.097 254.525C419.473 254.525 428.434 249.492 432.36 240.833L420.178 234.189C417.258 239.424 412.929 241.639 407.996 241.639C400.043 241.639 393.801 236.101 393.801 226.638C393.801 217.174 400.043 211.637 407.996 211.637C412.929 211.637 417.258 213.952 420.178 219.087L432.36 212.543C428.434 203.683 419.473 198.75 408.097 198.75C390.478 198.75 377.894 210.328 377.894 226.638C377.894 242.947 390.478 254.525 408.097 254.525Z" fill="white"/>
<path d="M473.931 198.75C466.985 198.75 460.944 200.965 456.715 205.193V179.017H441.01V253.72H456.715V226.94C456.715 216.973 462.152 212.342 469.703 212.342C476.65 212.342 480.677 216.369 480.677 225.128V253.72H496.382V222.711C496.382 206.2 486.717 198.75 473.931 198.75Z" fill="white"/>
<path d="M150.731 63.2421H204.168V93.9325H150.731V63.2421ZM150.731 110.541H213.917V142.676H108.848V16.3039H211.57V48.4385H150.731V110.541Z" fill="white"/>
<path d="M229.055 142.676V8.72153H269.855V142.676H229.055Z" fill="white"/>
<path d="M347.695 142.676V125.164L347.105 119.641L344.807 115.893V87.2528C345.097 79.7571 343.302 78.7678 340.294 76.2404C337.405 73.7129 332.651 72.4492 326.032 72.4492C321.578 72.4492 317.065 73.1713 312.492 74.6156C307.918 75.9395 304.007 77.805 300.757 80.2121L287.759 53.3129C293.536 49.7022 300.456 46.9341 308.52 45.0084C316.584 43.0827 324.467 42.1199 332.17 42.1199C349.14 42.1199 362.258 45.9111 371.526 53.4934C380.913 61.0757 385.607 73.1112 385.607 89.5997V142.676H347.695ZM319.713 144.481C311.649 144.481 304.909 143.097 299.493 140.329C294.077 137.561 289.985 133.89 287.217 129.317C284.449 124.623 283.065 119.448 283.065 113.791C283.065 107.412 284.69 101.996 287.939 97.5431C291.189 93.09 296.123 89.7201 302.743 87.4333C309.483 85.1466 317.968 84.0032 328.198 84.0032H344.807V103.681H334.697C330.364 103.681 327.175 104.403 325.129 105.848C323.203 107.171 322.24 109.217 322.24 111.986C322.24 114.272 323.083 116.198 324.768 117.763C326.573 119.207 328.98 119.929 331.989 119.929C334.757 119.929 337.285 119.207 339.571 117.763C341.978 116.198 343.724 113.791 344.807 110.541V115.893L347.105 119.641L347.695 125.164V129.076C346.636 133.359 345.168 135.455 340.113 139.065C335.058 142.676 328.258 144.481 319.713 144.481Z" fill="white"/>
<path d="M441.874 144.481C433.449 144.481 425.144 143.579 416.96 141.773C408.776 139.968 402.157 137.621 397.102 134.733L408.295 107.833C412.989 110.602 418.404 112.768 424.543 114.333C430.801 115.897 436.879 116.679 442.776 116.679C447.711 116.679 451.021 116.258 452.706 115.416C454.511 114.573 455.413 113.43 455.413 111.986C455.413 110.541 454.391 109.518 452.344 108.917C450.298 108.194 447.59 107.653 444.22 107.292C440.851 106.931 437.12 106.51 433.028 106.028C429.056 105.426 425.024 104.584 420.932 103.501C416.84 102.417 413.109 100.793 409.739 98.6263C406.369 96.4599 403.661 93.5714 401.615 89.9608C399.569 86.2298 398.546 81.536 398.546 75.8793C398.546 69.6209 400.412 63.9642 404.143 58.9093C407.994 53.8545 413.65 49.8226 421.112 46.8137C428.695 43.6845 438.022 42.1199 449.095 42.1199C456.316 42.1199 463.537 42.7818 470.759 44.1057C477.98 45.4296 484.178 47.4757 489.353 50.2438L478.16 77.143C473.106 74.3749 468.111 72.5094 463.176 71.5466C458.362 70.4634 453.849 69.9218 449.636 69.9218C444.461 69.9218 440.911 70.4032 438.985 71.366C437.18 72.3289 436.277 73.412 436.277 74.6156C436.277 76.0599 437.3 77.143 439.346 77.8652C441.392 78.5873 444.1 79.1289 447.47 79.49C450.84 79.851 454.511 80.3324 458.483 80.9342C462.575 81.4156 466.606 82.2581 470.578 83.4616C474.67 84.5448 478.401 86.1696 481.771 88.336C485.141 90.5024 487.849 93.4511 489.895 97.1821C491.941 100.793 492.964 105.426 492.964 111.083C492.964 116.98 491.099 122.517 487.368 127.692C483.637 132.747 477.98 136.839 470.398 139.968C462.815 142.977 453.307 144.481 441.874 144.481Z" fill="white"/>
<path d="M46.027 305.455H0L0 0.299653H46.027V21.0203H26.4952V284.735H46.027V305.455Z" fill="white"/>
<path d="M602.571 0.285889V305.441H556.714V284.721H576.076V21.0065H556.714V0.285889H602.571Z" fill="white"/>
</svg>
